<svg width="474" height="100" viewBox="0 0 474 100" fill="none" xmlns="http://www.w3.org/2000/svg">
<path d="M133.032 73.768C129.448 73.768 126.013 73.2987 122.728 72.36C119.443 71.3787 116.797 70.12 114.792 68.584L118.312 60.776C120.232 62.1413 122.493 63.272 125.096 64.168C127.741 65.0213 130.408 65.448 133.096 65.448C135.144 65.448 136.787 65.256 138.024 64.872C139.304 64.4453 140.243 63.8693 140.84 63.144C141.437 62.4187 141.736 61.5867 141.736 60.648C141.736 59.4533 141.267 58.5147 140.328 57.832C139.389 57.1067 138.152 56.5307 136.616 56.104C135.08 55.6347 133.373 55.208 131.496 54.824C129.661 54.3973 127.805 53.8853 125.928 53.288C124.093 52.6907 122.408 51.9227 120.872 50.984C119.336 50.0453 118.077 48.808 117.096 47.272C116.157 45.736 115.688 43.7733 115.688 41.384C115.688 38.824 116.371 36.4987 117.736 34.408C119.144 32.2747 121.235 30.5893 124.008 29.352C126.824 28.072 130.344 27.432 134.568 27.432C137.384 27.432 140.157 27.7733 142.888 28.456C145.619 29.096 148.029 30.0773 150.12 31.4L146.92 39.272C144.829 38.0773 142.739 37.2027 140.648 36.648C138.557 36.0507 136.509 35.752 134.504 35.752C132.499 35.752 130.856 35.9867 129.576 36.456C128.296 36.9253 127.379 37.544 126.824 38.312C126.269 39.0373 125.992 39.8907 125.992 40.872C125.992 42.024 126.461 42.9627 127.4 43.688C128.339 44.3707 129.576 44.9253 131.112 45.352C132.648 45.7787 134.333 46.2053 136.168 46.632C138.045 47.0587 139.901 47.5493 141.736 48.104C143.613 48.6587 145.32 49.4053 146.856 50.344C148.392 51.2827 149.629 52.52 150.568 54.056C151.549 55.592 152.04 57.5333 152.04 59.88C152.04 62.3973 151.336 64.7013 149.928 66.792C148.52 68.8827 146.408 70.568 143.592 71.848C140.819 73.128 137.299 73.768 133.032 73.768ZM168.661 46.248H190.229V54.312H168.661V46.248ZM169.429 64.68H193.812V73H159.125V28.2H192.981V36.52H169.429V64.68ZM202.062 73V28.2H212.43V73H202.062ZM232.662 48.36H254.166V56.68H232.662V48.36ZM233.43 73H223.062V28.2H256.918V36.52H233.43V73ZM275.073 73V54.696L277.441 60.968L257.729 28.2H268.737L283.841 53.352H277.505L292.673 28.2H302.849L283.137 60.968L285.441 54.696V73H275.073ZM309.171 73V28.2H313.907V68.904H338.995V73H309.171ZM339.691 73L360.171 28.2H364.843L385.323 73H380.331L361.515 30.952H363.435L344.619 73H339.691ZM347.755 61.032L349.163 57.192H375.211L376.619 61.032H347.755ZM392.734 73V28.2H412.062C417.054 28.2 420.915 29.2027 423.646 31.208C426.419 33.2133 427.806 36.0507 427.806 39.72C427.806 42.152 427.23 44.2 426.078 45.864C424.968 47.528 423.432 48.7867 421.47 49.64C419.55 50.4933 417.438 50.92 415.134 50.92L416.222 49.384C419.08 49.384 421.534 49.832 423.582 50.728C425.672 51.5813 427.294 52.8827 428.446 54.632C429.598 56.3387 430.174 58.472 430.174 61.032C430.174 64.8293 428.766 67.7733 425.95 69.864C423.176 71.9547 418.974 73 413.342 73H392.734ZM397.47 69.096H413.278C417.203 69.096 420.211 68.4347 422.302 67.112C424.392 65.7467 425.438 63.592 425.438 60.648C425.438 57.7467 424.392 55.6347 422.302 54.312C420.211 52.9467 417.203 52.264 413.278 52.264H396.958V48.36H411.742C415.326 48.36 418.099 47.6773 420.062 46.312C422.067 44.9467 423.069 42.92 423.069 40.232C423.069 37.5013 422.067 35.4747 420.062 34.152C418.099 32.7867 415.326 32.104 411.742 32.104H397.47V69.096ZM453.336 73.384C450.008 73.384 446.808 72.8507 443.736 71.784C440.706 70.6747 438.36 69.2667 436.696 67.56L438.552 63.912C440.13 65.448 442.242 66.7493 444.888 67.816C447.576 68.84 450.392 69.352 453.336 69.352C456.152 69.352 458.434 69.0107 460.184 68.328C461.976 67.6027 463.277 66.6427 464.088 65.448C464.941 64.2533 465.368 62.9307 465.368 61.48C465.368 59.7307 464.856 58.3227 463.832 57.256C462.85 56.1893 461.549 55.3573 459.928 54.76C458.306 54.12 456.514 53.5653 454.552 53.096C452.589 52.6267 450.626 52.136 448.664 51.624C446.701 51.0693 444.888 50.344 443.224 49.448C441.602 48.552 440.28 47.3787 439.256 45.928C438.274 44.4347 437.784 42.4933 437.784 40.104C437.784 37.8853 438.36 35.8587 439.512 34.024C440.706 32.1467 442.52 30.6533 444.952 29.544C447.384 28.392 450.498 27.816 454.296 27.816C456.813 27.816 459.309 28.1787 461.784 28.904C464.258 29.5867 466.392 30.5467 468.184 31.784L466.583 35.56C464.664 34.28 462.616 33.3413 460.44 32.744C458.306 32.1467 456.237 31.848 454.232 31.848C451.544 31.848 449.325 32.2107 447.576 32.936C445.826 33.6613 444.525 34.6427 443.672 35.88C442.861 37.0747 442.456 38.44 442.456 39.976C442.456 41.7253 442.946 43.1333 443.928 44.2C444.952 45.2667 446.274 46.0987 447.896 46.696C449.56 47.2933 451.373 47.8267 453.336 48.296C455.298 48.7653 457.24 49.2773 459.16 49.832C461.122 50.3867 462.914 51.112 464.536 52.008C466.2 52.8613 467.522 54.0133 468.504 55.464C469.528 56.9147 470.04 58.8133 470.04 61.16C470.04 63.336 469.442 65.3627 468.248 67.24C467.053 69.0747 465.218 70.568 462.744 71.72C460.312 72.8293 457.176 73.384 453.336 73.384Z" fill="white"/>
<path d="M48.1647 100C39.9694 100 32.2669 96.8237 26.4721 91.0563L1.70554 66.4061C-0.568513 64.1444 -0.568513 60.4769 1.70554 58.2136C3.97548 55.9528 7.66209 55.9528 9.93532 58.2136L34.7035 82.8647C38.2998 86.4439 43.0803 88.4146 48.1647 88.4146C53.2499 88.4146 58.0304 86.4439 61.625 82.8655C64.6784 79.8273 66.3596 75.7879 66.3596 71.4934C66.3596 67.1981 64.6784 63.1595 61.6267 60.1222L48.3306 46.8881C46.0573 44.6257 46.0573 40.9581 48.3306 38.6965C50.6013 36.4348 54.2896 36.434 56.5612 38.6973L69.8565 51.9305C75.1084 57.1551 78 64.1036 78 71.4934C78 78.8833 75.1084 85.8317 69.8565 91.0572C64.0625 96.8237 56.36 100 48.1647 100Z" fill="#8159D9"/>
<path d="M33.9812 64C32.4908 64 30.9972 63.4306 29.8605 62.2927L17.5634 49.9913C6.14553 38.5695 6.14553 19.9862 17.5634 8.56515C28.9813 -2.85505 47.5598 -2.85505 58.9743 8.56515L81.2919 30.8905C83.5694 33.1671 83.5694 36.8598 81.2919 39.1372C79.0185 41.4138 75.3272 41.4138 73.0497 39.1372L50.7313 16.8119C43.8577 9.93755 32.6808 9.93755 25.8073 16.8119C22.4794 20.1417 20.6445 24.5691 20.6445 29.2778C20.6445 33.9874 22.4778 38.4148 25.8064 41.7446L38.1027 54.046C40.3794 56.3235 40.3794 60.0145 38.1027 62.2927C36.966 63.4306 35.4724 64 33.9812 64Z" fill="#8159D9"/>
<path d="M38.3018 62.2949C37.1765 63.4316 35.7052 64 34.2339 64C32.748 64 31.2767 63.4316 30.1515 62.2949L19 51.0295C20.7888 47.4737 23.7461 44.6179 27.3815 43L38.3018 54.0466C40.5661 56.32 40.5661 60.0066 38.3018 62.2949Z" fill="#643BBF"/>
<path d="M68 50.5177C66.2474 54.2344 63.2344 57.2465 59.5186 59L47.7535 47.2358C45.4155 44.8978 45.4155 41.1067 47.7535 38.7535C50.0914 36.4155 53.8978 36.4155 56.2358 38.7535L68 50.5177Z" fill="#643BBF"/>
<path d="M52.5 54C46.1583 54 41 49.0651 41 43C41 36.9349 46.1583 32 52.5 32C58.8417 32 64 36.9349 64 43C64 49.0651 58.8417 54 52.5 54Z" fill="#412481"/>
<path d="M33.9992 69C27.9337 69 23 64.0651 23 58C23 51.9349 27.9337 47 33.9992 47C40.0655 47 45 51.9349 45 58C45 64.0651 40.0655 69 33.9992 69Z" fill="#412481"/>
<path d="M33.9996 63C31.2424 63 29 60.7565 29 58C29 55.2426 31.2424 53 33.9996 53C36.7567 53 39 55.2426 39 58C39 60.7565 36.7567 63 33.9996 63Z" fill="#8159D9"/>
<path d="M52.4996 48C50.019 48 48 45.7574 48 43C48 40.2435 50.019 38 52.4996 38C54.981 38 57 40.2435 57 43C57 45.7574 54.981 48 52.4996 48Z" fill="#8159D9"/>
</svg>
