<?xml version="1.0" encoding="UTF-8" standalone="no"?>
<!-- Generator: Adobe Illustrator 26.0.3, SVG Export Plug-In . SVG Version: 6.00 Build 0)  -->

<svg
   version="1.0"
   id="katman_1"
   x="0px"
   y="0px"
   viewBox="0 0 489 502.20001"
   xml:space="preserve"
   sodipodi:docname="solana.svg"
   width="489"
   height="502.20001"
   xmlns:inkscape="http://www.inkscape.org/namespaces/inkscape"
   xmlns:sodipodi="http://sodipodi.sourceforge.net/DTD/sodipodi-0.dtd"
   xmlns="http://www.w3.org/2000/svg"
   xmlns:svg="http://www.w3.org/2000/svg"><defs
   id="defs2" /><sodipodi:namedview
   id="namedview2"
   pagecolor="#ffffff"
   bordercolor="#000000"
   borderopacity="0.25"
   inkscape:showpageshadow="2"
   inkscape:pageopacity="0.0"
   inkscape:pagecheckerboard="0"
   inkscape:deskcolor="#d1d1d1" />&#10;<style
   type="text/css"
   id="style1">&#10;	.st0{fill:#232323;}&#10;	.st1{fill:url(#SVGID_1_);}&#10;</style>&#10;<path
   class="st0"
   d="m 244.3,0 h 0.4 C 379.6,0 489,109.4 489,244.3 v 13.6 c 0,134.9 -109.4,244.3 -244.3,244.3 h -0.4 C 109.4,502.2 0,392.8 0,257.9 V 244.3 C 0,109.4 109.4,0 244.3,0 Z"
   id="path1" />&#10;<linearGradient
   id="SVGID_1_"
   gradientUnits="userSpaceOnUse"
   x1="300.54901"
   y1="184.6306"
   x2="547.98389"
   y2="425.52869"
   gradientTransform="matrix(1,0,0,-1,-176.2449,555.8622)">&#10;	<stop
   offset="0"
   style="stop-color:#CF41E8"
   id="stop1" />&#10;	<stop
   offset="1"
   style="stop-color:#10F2B0"
   id="stop2" />&#10;</linearGradient>&#10;<path
   class="st1"
   d="m 349,189 c -0.8,0.9 -1.8,1.6 -2.9,2 -1.1,0.5 -2.3,0.7 -3.5,0.7 H 116.1 c -8,0 -12.1,-10 -6.5,-16 l 37.2,-39.5 c 0.8,-0.9 1.8,-1.6 3,-2.1 1.1,-0.5 2.3,-0.7 3.5,-0.7 h 227.4 c 8.1,0 12.1,10.1 6.4,16.1 z m 0,176.6 c -1.7,1.7 -4,2.7 -6.4,2.7 H 116.1 c -8,0 -12.1,-9.8 -6.5,-15.6 l 37.2,-38.6 c 0.8,-0.9 1.9,-1.6 3,-2 1.1,-0.5 2.3,-0.7 3.5,-0.7 h 227.4 c 8.1,0 12.1,9.9 6.4,15.7 z m 0,-140.5 c -1.7,-1.7 -4,-2.7 -6.4,-2.7 H 116.1 c -8,0 -12.1,9.8 -6.5,15.6 l 37.2,38.6 c 0.8,0.9 1.9,1.6 3,2 1.1,0.5 2.3,0.7 3.5,0.7 h 227.4 c 8.1,0 12.1,-9.9 6.4,-15.7 z"
   id="path2"
   style="fill:url(#SVGID_1_)" />&#10;</svg>
